<svg width="390" height="100" viewBox="0 0 390 100" fill="none" xmlns="http://www.w3.org/2000/svg">
<rect width="390" height="100" fill="#B5B5B5"/>
<path d="M35.72 58.66C35.7467 58.82 35.7133 58.92 35.62 58.96C35.5267 59 35.3867 59.0333 35.2 59.06C34.28 59.1533 33.3667 59.2267 32.46 59.28C31.5667 59.3333 30.64 59.3733 29.68 59.4C28.72 59.44 27.7133 59.4667 26.66 59.48C25.62 59.4933 24.4933 59.5 23.28 59.5C22.04 59.5 21.1333 59.24 20.56 58.72C19.9867 58.2133 19.7 57.3867 19.7 56.24V53.9C19.7 53.7133 19.74 53.5867 19.82 53.52C19.9 53.4533 20.0333 53.42 20.22 53.42H32.02V52.66H20.22C20.0333 52.66 19.9 52.6267 19.82 52.56C19.74 52.4933 19.7 52.3667 19.7 52.18V50.64C19.7 50.44 19.74 50.3067 19.82 50.24C19.9 50.1733 20.0333 50.14 20.22 50.14H34.96C35.1467 50.14 35.28 50.1733 35.36 50.24C35.44 50.3067 35.48 50.44 35.48 50.64V55.42C35.48 55.62 35.44 55.7533 35.36 55.82C35.28 55.8867 35.1467 55.92 34.96 55.92H23.16V56.14C23.16 56.4467 23.24 56.6333 23.4 56.7C23.56 56.7667 23.8067 56.8 24.14 56.8C25.26 56.8 26.3067 56.7933 27.28 56.78C28.2667 56.7667 29.2 56.7467 30.08 56.72C30.9733 56.6933 31.82 56.66 32.62 56.62C33.4333 56.58 34.2333 56.5267 35.02 56.46C35.3533 56.4467 35.5267 56.5733 35.54 56.84L35.72 58.66ZM25.5 40.5C25.6867 40.5 25.82 40.5333 25.9 40.6C25.98 40.6667 26.02 40.8 26.02 41V42.42C26.02 42.8067 26.0667 43.1867 26.16 43.56C26.2533 43.92 26.4267 44.26 26.68 44.58C26.9333 44.8867 27.2733 45.1667 27.7 45.42C28.1267 45.66 28.6733 45.8467 29.34 45.98C29.3933 45.9933 29.4533 46.0067 29.52 46.02C29.6 46.0333 29.6733 46.0667 29.74 46.12C29.8067 46.16 29.86 46.2267 29.9 46.32C29.9533 46.4 29.98 46.52 29.98 46.68V48.9C29.98 49.14 29.9133 49.2867 29.78 49.34C29.66 49.38 29.5533 49.3933 29.46 49.38C28.9933 49.34 28.5133 49.2733 28.02 49.18C27.54 49.0733 27.0667 48.9333 26.6 48.76C26.1333 48.5733 25.6867 48.34 25.26 48.06C24.8333 47.78 24.4533 47.4467 24.12 47.06C23.7733 47.4467 23.3867 47.78 22.96 48.06C22.5467 48.34 22.1067 48.5733 21.64 48.76C21.1733 48.9333 20.6933 49.0733 20.2 49.18C19.72 49.2733 19.2467 49.34 18.78 49.38C18.6867 49.3933 18.5733 49.38 18.44 49.34C18.32 49.2867 18.26 49.14 18.26 48.9V46.68C18.26 46.52 18.28 46.4 18.32 46.32C18.3733 46.2267 18.4333 46.16 18.5 46.12C18.5667 46.0667 18.6333 46.0333 18.7 46.02C18.78 46.0067 18.8467 45.9933 18.9 45.98C19.5667 45.8467 20.1133 45.66 20.54 45.42C20.9667 45.1667 21.3067 44.8867 21.56 44.58C21.8133 44.26 21.9867 43.92 22.08 43.56C22.1733 43.1867 22.22 42.8067 22.22 42.42V41C22.22 40.8 22.26 40.6667 22.34 40.6C22.42 40.5333 22.5533 40.5 22.74 40.5H25.5ZM32.16 49.3C31.9733 49.3 31.84 49.2667 31.76 49.2C31.68 49.1333 31.64 49 31.64 48.8V41C31.64 40.8 31.68 40.6667 31.76 40.6C31.84 40.5333 31.9733 40.5 32.16 40.5H34.96C35.1467 40.5 35.28 40.5333 35.36 40.6C35.44 40.6667 35.48 40.8 35.48 41V43.12H37.32C37.5067 43.12 37.64 43.1533 37.72 43.22C37.8 43.2867 37.84 43.42 37.84 43.62V45.94C37.84 46.14 37.8 46.2733 37.72 46.34C37.64 46.4067 37.5067 46.44 37.32 46.44H35.48V48.8C35.48 49 35.44 49.1333 35.36 49.2C35.28 49.2667 35.1467 49.3 34.96 49.3H32.16ZM57.84 50.12C57.84 50.32 57.8 50.4533 57.72 50.52C57.64 50.5867 57.5067 50.62 57.32 50.62H55.68V58.6C55.68 58.8 55.64 58.9333 55.56 59C55.48 59.0667 55.3467 59.1 55.16 59.1H52.36C52.1733 59.1 52.04 59.0667 51.96 59C51.88 58.9333 51.84 58.8 51.84 58.6V41C51.84 40.8 51.88 40.6667 51.96 40.6C52.04 40.5333 52.1733 40.5 52.36 40.5H55.16C55.3467 40.5 55.48 40.5333 55.56 40.6C55.64 40.6667 55.68 40.8 55.68 41V47.3H57.32C57.5067 47.3 57.64 47.3333 57.72 47.4C57.8 47.4667 57.84 47.6 57.84 47.8V50.12ZM44.58 41C44.58 40.8 44.62 40.6667 44.7 40.6C44.78 40.5333 44.9133 40.5 45.1 40.5H47.78C48.2867 40.5 48.72 40.56 49.08 40.68C49.44 40.8 49.7333 41 49.96 41.28C50.2 41.5467 50.3667 41.9 50.46 42.34C50.5667 42.7667 50.6133 43.2933 50.6 43.92C50.5867 44.8267 50.5467 45.8533 50.48 47C50.4133 48.1467 50.3133 49.3467 50.18 50.6C50.06 51.8533 49.9 53.1267 49.7 54.42C49.5133 55.7 49.28 56.9267 49 58.1C48.9467 58.3 48.8933 58.4333 48.84 58.5C48.7867 58.5667 48.6667 58.6 48.48 58.6L45.84 58.02C45.7467 58.0067 45.66 57.9867 45.58 57.96C45.5133 57.9467 45.4533 57.9133 45.4 57.86C45.3467 57.8067 45.3133 57.7333 45.3 57.64C45.3 57.56 45.32 57.44 45.36 57.28C45.64 56.2667 45.8733 55.2 46.06 54.08C46.26 52.9467 46.42 51.84 46.54 50.76C46.66 49.6667 46.7467 48.6267 46.8 47.64C46.8533 46.64 46.88 45.7667 46.88 45.02C46.88 44.5133 46.8067 44.1867 46.66 44.04C46.5133 43.8933 46.2667 43.82 45.92 43.82H45.1C44.9133 43.82 44.78 43.7867 44.7 43.72C44.62 43.6533 44.58 43.52 44.58 43.32V41ZM38.1 41C38.1 40.8 38.14 40.6667 38.22 40.6C38.3 40.5333 38.4333 40.5 38.62 40.5H41.3C41.8067 40.5 42.24 40.56 42.6 40.68C42.96 40.8 43.2533 41 43.48 41.28C43.7067 41.5467 43.8667 41.9 43.96 42.34C44.0667 42.7667 44.12 43.2933 44.12 43.92C44.12 44.92 44.0867 45.98 44.02 47.1C43.9667 48.22 43.8733 49.3733 43.74 50.56C43.6067 51.7333 43.44 52.9267 43.24 54.14C43.04 55.34 42.8 56.5267 42.52 57.7C42.4667 57.9 42.4133 58.0333 42.36 58.1C42.3067 58.1667 42.1867 58.2 42 58.2L39.36 57.62C39.2667 57.6067 39.18 57.5867 39.1 57.56C39.0333 57.5467 38.9733 57.5133 38.92 57.46C38.8667 57.4067 38.8333 57.3333 38.82 57.24C38.82 57.16 38.84 57.04 38.88 56.88C39.16 55.8667 39.3933 54.82 39.58 53.74C39.78 52.6467 39.94 51.58 40.06 50.54C40.18 49.5 40.2667 48.5067 40.32 47.56C40.3733 46.6133 40.4 45.7667 40.4 45.02C40.4 44.5133 40.3133 44.1867 40.14 44.04C39.9667 43.8933 39.7067 43.82 39.36 43.82H38.62C38.4333 43.82 38.3 43.7867 38.22 43.72C38.14 43.6533 38.1 43.52 38.1 43.32V41ZM75.72 58.66C75.7467 58.82 75.7133 58.92 75.62 58.96C75.5267 59 75.3867 59.0333 75.2 59.06C74.28 59.1533 73.3667 59.2267 72.46 59.28C71.5667 59.3333 70.64 59.3733 69.68 59.4C68.72 59.44 67.7133 59.4667 66.66 59.48C65.62 59.4933 64.4933 59.5 63.28 59.5C62.04 59.5 61.1333 59.24 60.56 58.72C59.9867 58.2133 59.7 57.3867 59.7 56.24V53.9C59.7 53.7133 59.74 53.5867 59.82 53.52C59.9 53.4533 60.0333 53.42 60.22 53.42H72.02V52.66H60.22C60.0333 52.66 59.9 52.6267 59.82 52.56C59.74 52.4933 59.7 52.3667 59.7 52.18V50.64C59.7 50.44 59.74 50.3067 59.82 50.24C59.9 50.1733 60.0333 50.14 60.22 50.14H74.96C75.1467 50.14 75.28 50.1733 75.36 50.24C75.44 50.3067 75.48 50.44 75.48 50.64V55.42C75.48 55.62 75.44 55.7533 75.36 55.82C75.28 55.8867 75.1467 55.92 74.96 55.92H63.16V56.14C63.16 56.4467 63.24 56.6333 63.4 56.7C63.56 56.7667 63.8067 56.8 64.14 56.8C65.26 56.8 66.3067 56.7933 67.28 56.78C68.2667 56.7667 69.2 56.7467 70.08 56.72C70.9733 56.6933 71.82 56.66 72.62 56.62C73.4333 56.58 74.2333 56.5267 75.02 56.46C75.3533 56.4467 75.5267 56.5733 75.54 56.84L75.72 58.66ZM69.62 46.92C69.62 47.76 69.44 48.3667 69.08 48.74C68.72 49.1133 68.18 49.3 67.46 49.3H60.94C60.22 49.3 59.68 49.1133 59.32 48.74C58.96 48.3667 58.78 47.76 58.78 46.92V41C58.78 40.8 58.82 40.6667 58.9 40.6C58.98 40.5333 59.1133 40.5 59.3 40.5H69.1C69.2867 40.5 69.42 40.5333 69.5 40.6C69.58 40.6667 69.62 40.8 69.62 41V46.92ZM72.16 49.3C71.9733 49.3 71.84 49.2667 71.76 49.2C71.68 49.1333 71.64 49 71.64 48.8V41C71.64 40.8 71.68 40.6667 71.76 40.6C71.84 40.5333 71.9733 40.5 72.16 40.5H74.96C75.1467 40.5 75.28 40.5333 75.36 40.6C75.44 40.6667 75.48 40.8 75.48 41V43.12H77.32C77.5067 43.12 77.64 43.1533 77.72 43.22C77.8 43.2867 77.84 43.42 77.84 43.62V45.94C77.84 46.14 77.8 46.2733 77.72 46.34C77.64 46.4067 77.5067 46.44 77.32 46.44H75.48V48.8C75.48 49 75.44 49.1333 75.36 49.2C75.28 49.2667 75.1467 49.3 74.96 49.3H72.16ZM65.44 46.22C65.6667 46.22 65.82 46.18 65.9 46.1C65.98 46.0067 66.02 45.8333 66.02 45.58V43.48H62.38V45.58C62.38 45.8333 62.42 46.0067 62.5 46.1C62.58 46.18 62.7333 46.22 62.96 46.22H65.44ZM97.84 50.12C97.84 50.32 97.8 50.4533 97.72 50.52C97.64 50.5867 97.5067 50.62 97.32 50.62H95.68V58.6C95.68 58.8 95.64 58.9333 95.56 59C95.48 59.0667 95.3467 59.1 95.16 59.1H92.36C92.1733 59.1 92.04 59.0667 91.96 59C91.88 58.9333 91.84 58.8 91.84 58.6V41C91.84 40.8 91.88 40.6667 91.96 40.6C92.04 40.5333 92.1733 40.5 92.36 40.5H95.16C95.3467 40.5 95.48 40.5333 95.56 40.6C95.64 40.6667 95.68 40.8 95.68 41V47.3H97.32C97.5067 47.3 97.64 47.3333 97.72 47.4C97.8 47.4667 97.84 47.6 97.84 47.8V50.12ZM84.58 41C84.58 40.8 84.62 40.6667 84.7 40.6C84.78 40.5333 84.9133 40.5 85.1 40.5H87.78C88.2867 40.5 88.72 40.56 89.08 40.68C89.44 40.8 89.7333 41 89.96 41.28C90.2 41.5467 90.3667 41.9 90.46 42.34C90.5667 42.7667 90.6133 43.2933 90.6 43.92C90.5867 44.8267 90.5467 45.8533 90.48 47C90.4133 48.1467 90.3133 49.3467 90.18 50.6C90.06 51.8533 89.9 53.1267 89.7 54.42C89.5133 55.7 89.28 56.9267 89 58.1C88.9467 58.3 88.8933 58.4333 88.84 58.5C88.7867 58.5667 88.6667 58.6 88.48 58.6L85.84 58.02C85.7467 58.0067 85.66 57.9867 85.58 57.96C85.5133 57.9467 85.4533 57.9133 85.4 57.86C85.3467 57.8067 85.3133 57.7333 85.3 57.64C85.3 57.56 85.32 57.44 85.36 57.28C85.64 56.2667 85.8733 55.2 86.06 54.08C86.26 52.9467 86.42 51.84 86.54 50.76C86.66 49.6667 86.7467 48.6267 86.8 47.64C86.8533 46.64 86.88 45.7667 86.88 45.02C86.88 44.5133 86.8067 44.1867 86.66 44.04C86.5133 43.8933 86.2667 43.82 85.92 43.82H85.1C84.9133 43.82 84.78 43.7867 84.7 43.72C84.62 43.6533 84.58 43.52 84.58 43.32V41ZM78.1 41C78.1 40.8 78.14 40.6667 78.22 40.6C78.3 40.5333 78.4333 40.5 78.62 40.5H81.3C81.8067 40.5 82.24 40.56 82.6 40.68C82.96 40.8 83.2533 41 83.48 41.28C83.7067 41.5467 83.8667 41.9 83.96 42.34C84.0667 42.7667 84.12 43.2933 84.12 43.92C84.12 44.92 84.0867 45.98 84.02 47.1C83.9667 48.22 83.8733 49.3733 83.74 50.56C83.6067 51.7333 83.44 52.9267 83.24 54.14C83.04 55.34 82.8 56.5267 82.52 57.7C82.4667 57.9 82.4133 58.0333 82.36 58.1C82.3067 58.1667 82.1867 58.2 82 58.2L79.36 57.62C79.2667 57.6067 79.18 57.5867 79.1 57.56C79.0333 57.5467 78.9733 57.5133 78.92 57.46C78.8667 57.4067 78.8333 57.3333 78.82 57.24C78.82 57.16 78.84 57.04 78.88 56.88C79.16 55.8667 79.3933 54.82 79.58 53.74C79.78 52.6467 79.94 51.58 80.06 50.54C80.18 49.5 80.2667 48.5067 80.32 47.56C80.3733 46.6133 80.4 45.7667 80.4 45.02C80.4 44.5133 80.3133 44.1867 80.14 44.04C79.9667 43.8933 79.7067 43.82 79.36 43.82H78.62C78.4333 43.82 78.3 43.7867 78.22 43.72C78.14 43.6533 78.1 43.52 78.1 43.32V41Z" fill="white"/>
<path d="M118.068 32.16C118.296 32.38 118.409 32.6477 118.409 32.963C118.409 33.2783 118.296 33.5497 118.068 33.777C117.848 33.997 117.577 34.107 117.254 34.107C116.939 34.107 116.668 33.997 116.44 33.777C116.22 33.5497 116.11 33.2783 116.11 32.963C116.11 32.6477 116.22 32.38 116.44 32.16C116.668 31.9327 116.939 31.819 117.254 31.819C117.57 31.819 117.841 31.9327 118.068 32.16ZM133.618 28.596C133.618 30.3413 133.508 31.8373 133.288 33.084H134.685V34.118H130.879V37.869H129.592V34.118H125.83V33.084H132.056C132.122 32.7467 132.188 32.2443 132.254 31.577L126.677 31.863L126.523 30.84L132.309 30.609C132.324 30.1103 132.331 29.7767 132.331 29.608H126.809V28.596H133.618ZM143.158 35.922C143.158 36.494 142.857 36.945 142.256 37.275C141.654 37.605 140.811 37.77 139.726 37.77C138.655 37.77 137.819 37.605 137.218 37.275C136.616 36.945 136.316 36.494 136.316 35.922C136.316 35.3353 136.613 34.877 137.207 34.547C137.808 34.2097 138.648 34.041 139.726 34.041C140.811 34.041 141.654 34.206 142.256 34.536C142.857 34.866 143.158 35.328 143.158 35.922ZM141.167 33.227C139.942 33.4617 137.991 33.579 135.315 33.579C135.241 33.1097 135.183 32.754 135.139 32.512H136.415L136.184 30.323L137.449 30.18L137.559 32.479L138.285 32.446C138.453 32.446 138.578 32.4423 138.659 32.435C138.666 32.2663 138.677 32.0317 138.692 31.731C138.714 31.423 138.732 31.1443 138.747 30.895C138.761 30.6457 138.776 30.4073 138.791 30.18L140.023 30.323C139.986 30.5943 139.938 30.9903 139.88 31.511C139.828 32.0243 139.799 32.3177 139.792 32.391C140.378 32.3397 140.807 32.292 141.079 32.248L141.167 33.227ZM144.401 31.511H143.004V33.865H141.717V28.068H143.004V30.455H144.401V31.511ZM141.827 35.922C141.827 35.636 141.643 35.4197 141.277 35.273C140.91 35.119 140.393 35.042 139.726 35.042C139.066 35.042 138.552 35.119 138.186 35.273C137.826 35.4197 137.647 35.636 137.647 35.922C137.647 36.1933 137.83 36.4023 138.197 36.549C138.563 36.6957 139.073 36.769 139.726 36.769C140.393 36.769 140.91 36.6957 141.277 36.549C141.643 36.4023 141.827 36.1933 141.827 35.922ZM140.793 29.762H135.469V28.739H140.793V29.762ZM151.245 37.418H150.035V32.853H149.199C149.14 33.7183 148.931 34.4333 148.572 34.998C148.22 35.5553 147.721 35.834 147.076 35.834C146.599 35.834 146.196 35.6617 145.866 35.317C145.536 34.9723 145.301 34.5433 145.162 34.03C145.03 33.5167 144.964 32.941 144.964 32.303C144.964 31.6723 145.03 31.104 145.162 30.598C145.301 30.092 145.536 29.6667 145.866 29.322C146.196 28.9773 146.599 28.805 147.076 28.805C147.729 28.805 148.231 29.0873 148.583 29.652C148.935 30.2093 149.14 30.9243 149.199 31.797H150.035V28.255H151.245V37.418ZM153.203 37.869H151.993V28.068H153.203V37.869ZM147.791 34.03C147.945 33.59 148.022 33.018 148.022 32.314C148.022 31.61 147.945 31.038 147.791 30.598C147.637 30.1507 147.402 29.927 147.087 29.927C146.786 29.927 146.559 30.1507 146.405 30.598C146.251 31.038 146.174 31.61 146.174 32.314C146.174 33.0107 146.251 33.5827 146.405 34.03C146.559 34.47 146.786 34.69 147.087 34.69C147.402 34.69 147.637 34.47 147.791 34.03ZM162.501 37.869H161.203V32.468H159.432V31.379H161.203V28.068H162.501V37.869ZM160.345 34.723L159.608 35.691C159.175 35.427 158.731 35.0273 158.277 34.492C157.822 33.9493 157.514 33.4323 157.353 32.941C157.191 33.4983 156.887 34.0557 156.44 34.613C156 35.163 155.523 35.5773 155.01 35.856L154.24 34.91C155.86 33.854 156.671 32.347 156.671 30.389V28.893H157.991V30.323C157.991 31.2763 158.196 32.127 158.607 32.875C159.017 33.623 159.597 34.239 160.345 34.723ZM174.886 32.985H173.61V28.068H174.886V32.985ZM175.194 37.792H168.44V35.163H173.61V34.492H168.385V33.469H174.886V36.098H169.749V36.758H175.194V37.792ZM172.741 31.973L172.037 32.93C171.626 32.776 171.205 32.523 170.772 32.171C170.347 31.8117 170.031 31.4193 169.826 30.994C169.687 31.4707 169.393 31.9143 168.946 32.325C168.506 32.7357 168.044 33.0217 167.56 33.183L166.812 32.226C167.538 31.962 168.11 31.5587 168.528 31.016C168.946 30.466 169.155 29.8243 169.155 29.091V28.365H170.486V29.025C170.486 29.7363 170.706 30.356 171.146 30.884C171.593 31.412 172.125 31.775 172.741 31.973ZM181.137 34.679L180.411 35.603C180.073 35.3903 179.732 35.064 179.388 34.624C179.05 34.1767 178.823 33.744 178.706 33.326C178.588 33.7807 178.346 34.2537 177.98 34.745C177.62 35.2363 177.243 35.5957 176.847 35.823L176.066 34.954C177.415 34.0593 178.09 32.6403 178.09 30.697V30.224H176.44V29.201H180.862V30.224H179.333V30.675C179.333 31.6283 179.487 32.4497 179.795 33.139C180.103 33.821 180.55 34.3343 181.137 34.679ZM182.688 37.418H181.489V32.501H180.213V31.445H181.489V28.255H182.688V37.418ZM184.657 37.869H183.436V28.068H184.657V37.869ZM197.79 32.897H196.371V37.869H195.095V28.068H196.371V31.83H197.79V32.897ZM193.797 29.069C193.701 32.2223 192.238 34.5653 189.408 36.098L188.627 35.13C189.675 34.646 190.544 33.942 191.234 33.018C191.923 32.094 192.312 31.1333 192.4 30.136H189.221V29.069H193.797ZM206.339 33.744H205.052V32.765H203.248V31.709H205.052V30.774H203.391V29.718H205.052V28.068H206.339V33.744ZM206.35 37.88H205.052V35.273H199.706V34.25H206.35V37.88ZM203.248 28.651C203.153 31.181 201.705 32.8897 198.903 33.777L198.232 32.743C199.142 32.545 199.926 32.1857 200.586 31.665C201.246 31.1443 201.661 30.4953 201.829 29.718H198.705V28.651H203.248ZM216.605 33.227H207.75V32.204H216.605V33.227ZM215.791 37.825H208.806V35.328H214.163V34.767H208.817V33.766H215.439V36.23H210.093V36.769H215.791V37.825ZM210.06 29.971C210.06 30.1983 210.251 30.389 210.632 30.543C211.013 30.6897 211.534 30.763 212.194 30.763C212.854 30.763 213.375 30.6897 213.756 30.543C214.145 30.389 214.339 30.1983 214.339 29.971C214.339 29.7363 214.148 29.5493 213.767 29.41C213.386 29.2633 212.861 29.19 212.194 29.19C211.527 29.19 211.002 29.2633 210.621 29.41C210.247 29.5493 210.06 29.7363 210.06 29.971ZM208.729 29.971C208.729 29.4283 209.03 28.9993 209.631 28.684C210.24 28.3687 211.094 28.211 212.194 28.211C213.287 28.211 214.137 28.3687 214.746 28.684C215.355 28.9993 215.659 29.4283 215.659 29.971C215.659 30.5063 215.355 30.9353 214.746 31.258C214.137 31.5733 213.287 31.731 212.194 31.731C211.101 31.731 210.251 31.5733 209.642 31.258C209.033 30.9353 208.729 30.5063 208.729 29.971ZM225.426 32.138C225.426 32.4753 225.276 32.754 224.975 32.974C224.674 33.194 224.267 33.337 223.754 33.403V33.744C224.795 33.6927 225.58 33.623 226.108 33.535C226.115 33.6597 226.134 33.843 226.163 34.085C226.192 34.327 226.207 34.4663 226.207 34.503C225.422 34.5983 224.425 34.679 223.215 34.745C222.005 34.811 221.019 34.844 220.256 34.844L220.08 33.81C220.615 33.81 221.411 33.8027 222.467 33.788V33.414C221.954 33.348 221.547 33.205 221.246 32.985C220.945 32.7577 220.795 32.4753 220.795 32.138C220.795 31.7273 221.008 31.401 221.433 31.159C221.866 30.917 222.423 30.796 223.105 30.796C223.794 30.796 224.352 30.917 224.777 31.159C225.21 31.401 225.426 31.7273 225.426 32.138ZM227.923 28.068V31.159H229.133V32.226H227.923V34.844H226.636V28.068H227.923ZM221.18 35.284H227.923V37.88H226.636V36.296H221.18V35.284ZM225.899 30.532H220.388V29.586H225.899V30.532ZM221.873 29.234V28.288H224.535V29.234H221.873ZM224.172 32.138C224.172 31.9987 224.077 31.885 223.886 31.797C223.703 31.709 223.442 31.665 223.105 31.665C222.775 31.665 222.515 31.709 222.324 31.797C222.141 31.885 222.049 31.9987 222.049 32.138C222.049 32.2773 222.141 32.3873 222.324 32.468C222.515 32.5487 222.775 32.589 223.105 32.589C223.816 32.589 224.172 32.4387 224.172 32.138ZM237.771 35.174H236.495V28.068H237.771V35.174ZM237.991 37.605H231.193V34.47H232.491V36.593H237.991V37.605ZM229.983 31.214C229.983 30.51 230.225 29.9307 230.709 29.476C231.2 29.0213 231.842 28.794 232.634 28.794C233.433 28.794 234.075 29.0213 234.559 29.476C235.043 29.9307 235.285 30.51 235.285 31.214C235.285 31.9253 235.043 32.5047 234.559 32.952C234.075 33.3993 233.433 33.623 232.634 33.623C231.834 33.623 231.193 33.3993 230.709 32.952C230.225 32.5047 229.983 31.9253 229.983 31.214ZM231.303 31.214C231.303 31.61 231.424 31.9363 231.666 32.193C231.908 32.4423 232.23 32.567 232.634 32.567C233.052 32.567 233.378 32.4423 233.613 32.193C233.855 31.9363 233.976 31.61 233.976 31.214C233.976 30.8327 233.855 30.5173 233.613 30.268C233.371 30.0187 233.044 29.894 232.634 29.894C232.23 29.894 231.908 30.0187 231.666 30.268C231.424 30.5173 231.303 30.8327 231.303 31.214ZM249.683 32.589C249.683 33.073 249.401 33.4543 248.836 33.733C248.279 34.0043 247.509 34.14 246.526 34.14C245.543 34.14 244.773 34.0043 244.216 33.733C243.659 33.4543 243.38 33.073 243.38 32.589C243.38 32.0977 243.659 31.7127 244.216 31.434C244.773 31.1553 245.543 31.016 246.526 31.016C247.516 31.016 248.29 31.1553 248.847 31.434C249.404 31.7127 249.683 32.0977 249.683 32.589ZM247.131 37.858H245.844V35.548H242.082V34.525H250.937V35.548H247.131V37.858ZM250.442 30.675H242.599V29.663H250.442V30.675ZM244.766 29.201V28.2H248.264V29.201H244.766ZM248.363 32.589C248.363 32.4057 248.187 32.259 247.835 32.149C247.49 32.039 247.054 31.984 246.526 31.984C245.998 31.984 245.562 32.039 245.217 32.149C244.88 32.2517 244.711 32.3983 244.711 32.589C244.711 32.765 244.88 32.908 245.217 33.018C245.562 33.1207 245.998 33.172 246.526 33.172C247.054 33.172 247.49 33.1207 247.835 33.018C248.187 32.908 248.363 32.765 248.363 32.589ZM262.211 28.596C262.211 30.2973 262.105 31.6907 261.892 32.776H263.344V33.799H259.538V37.869H258.251V33.799H254.489V32.776H260.671C260.847 31.9253 260.935 30.8767 260.935 29.63H255.578V28.596H262.211ZM268.275 29.245V35.317H264.304V29.245H268.275ZM272.345 37.869H271.113V32.952H270.321V37.418H269.111V28.244H270.321V31.918H271.113V28.068H272.345V37.869ZM267.065 34.327V30.235H265.514V34.327H267.065ZM279.167 31.423H273.48V30.4H279.167V31.423ZM274.855 29.718V28.706H277.88V29.718H274.855ZM281.191 28.068V32.039H282.555V33.106H281.191V37.869H279.893V28.068H281.191ZM273.964 33.876C273.964 33.2673 274.184 32.765 274.624 32.369C275.064 31.9657 275.633 31.764 276.329 31.764C277.033 31.764 277.602 31.962 278.034 32.358C278.474 32.754 278.694 33.26 278.694 33.876C278.694 34.4847 278.474 34.9907 278.034 35.394C277.594 35.79 277.026 35.988 276.329 35.988C275.625 35.988 275.053 35.7937 274.613 35.405C274.181 35.009 273.964 34.4993 273.964 33.876ZM275.218 33.876C275.218 34.1913 275.321 34.448 275.526 34.646C275.739 34.844 276.007 34.943 276.329 34.943C276.681 34.943 276.953 34.8477 277.143 34.657C277.341 34.459 277.44 34.1987 277.44 33.876C277.44 33.5533 277.334 33.293 277.121 33.095C276.916 32.897 276.652 32.798 276.329 32.798C276.007 32.798 275.739 32.897 275.526 33.095C275.321 33.293 275.218 33.5533 275.218 33.876ZM291.38 37.869H290.159V28.068H291.38V37.869ZM289.422 37.418H288.223V32.49H286.903V31.445H288.223V28.255H289.422V37.418ZM287.992 34.569L287.266 35.482C286.914 35.262 286.558 34.932 286.199 34.492C285.84 34.0447 285.601 33.5937 285.484 33.139C285.345 33.6523 285.103 34.1437 284.758 34.613C284.413 35.0823 284.014 35.4527 283.559 35.724L282.8 34.844C283.445 34.426 283.948 33.8467 284.307 33.106C284.674 32.3653 284.857 31.489 284.857 30.477V29.014H286.089V30.466C286.089 31.412 286.254 32.2443 286.584 32.963C286.921 33.6743 287.391 34.2097 287.992 34.569ZM300.567 31.247C300.567 32.0023 300.237 32.622 299.577 33.106C298.925 33.5827 298.063 33.821 296.992 33.821C295.929 33.821 295.067 33.5827 294.407 33.106C293.755 32.622 293.428 32.0023 293.428 31.247C293.428 30.4843 293.755 29.861 294.407 29.377C295.067 28.8857 295.929 28.64 296.992 28.64C298.063 28.64 298.925 28.8857 299.577 29.377C300.237 29.861 300.567 30.4843 300.567 31.247ZM301.414 36.648H292.559V35.614H294.539V33.986L295.826 34.041V35.614H298.125V34.041L299.412 33.986V35.614H301.414V36.648ZM298.62 32.347C299.038 32.061 299.247 31.6943 299.247 31.247C299.247 30.7997 299.038 30.433 298.62 30.147C298.21 29.861 297.667 29.718 296.992 29.718C296.318 29.718 295.775 29.861 295.364 30.147C294.954 30.433 294.748 30.7997 294.748 31.247C294.748 31.6943 294.954 32.061 295.364 32.347C295.775 32.6257 296.318 32.765 296.992 32.765C297.667 32.765 298.21 32.6257 298.62 32.347ZM118.068 49.16C118.296 49.38 118.409 49.6477 118.409 49.963C118.409 50.2783 118.296 50.5497 118.068 50.777C117.848 50.997 117.577 51.107 117.254 51.107C116.939 51.107 116.668 50.997 116.44 50.777C116.22 50.5497 116.11 50.2783 116.11 49.963C116.11 49.6477 116.22 49.38 116.44 49.16C116.668 48.9327 116.939 48.819 117.254 48.819C117.57 48.819 117.841 48.9327 118.068 49.16ZM134.168 54.869H132.947V50.062H132.133V54.418H130.934V45.244H132.133V49.028H132.947V45.068H134.168V54.869ZM129.724 49.358C130.12 49.7247 130.318 50.216 130.318 50.832C130.318 51.448 130.12 51.943 129.724 52.317C129.328 52.6837 128.811 52.867 128.173 52.867C127.542 52.867 127.025 52.6763 126.622 52.295C126.226 51.9063 126.028 51.4187 126.028 50.832C126.028 50.216 126.226 49.7247 126.622 49.358C127.025 48.984 127.542 48.797 128.173 48.797C128.811 48.797 129.328 48.984 129.724 49.358ZM125.819 48.434V47.411H130.494V48.434H125.819ZM129.163 50.832C129.163 50.5313 129.068 50.2857 128.877 50.095C128.694 49.9043 128.459 49.809 128.173 49.809C127.887 49.809 127.652 49.9043 127.469 50.095C127.286 50.2857 127.194 50.5313 127.194 50.832C127.194 51.14 127.286 51.3893 127.469 51.58C127.652 51.7633 127.887 51.855 128.173 51.855C128.459 51.855 128.694 51.7597 128.877 51.569C129.068 51.371 129.163 51.1253 129.163 50.832ZM126.886 46.85V45.827H129.526V46.85H126.886ZM136.943 49.248C138.622 49.248 139.913 49.149 140.815 48.951L140.958 49.941C139.953 50.1683 138.508 50.282 136.624 50.282H135.667V45.805H140.034V46.828H136.943V49.248ZM144.39 48.5H143.004V50.799H141.706V45.068H143.004V47.455H144.39V48.5ZM143.125 52.889C143.125 53.4903 142.828 53.967 142.234 54.319C141.64 54.671 140.815 54.847 139.759 54.847C138.71 54.847 137.889 54.671 137.295 54.319C136.708 53.967 136.415 53.4903 136.415 52.889C136.415 52.273 136.708 51.789 137.295 51.437C137.889 51.085 138.71 50.909 139.759 50.909C140.822 50.909 141.647 51.085 142.234 51.437C142.828 51.789 143.125 52.273 143.125 52.889ZM141.255 53.582C141.614 53.4133 141.794 53.1823 141.794 52.889C141.794 52.5957 141.614 52.3647 141.255 52.196C140.903 52.0273 140.404 51.943 139.759 51.943C139.121 51.943 138.622 52.0273 138.263 52.196C137.911 52.3647 137.735 52.5957 137.735 52.889C137.735 53.1823 137.911 53.4133 138.263 53.582C138.622 53.7433 139.121 53.824 139.759 53.824C140.404 53.824 140.903 53.7433 141.255 53.582ZM155.851 54.869H154.575V49.589H153.079V48.511H154.575V45.068H155.851V54.869ZM152.661 52.449H148.03V45.86H149.295V48.214H151.374V45.838H152.661V52.449ZM151.374 51.437V49.226H149.295V51.437H151.374ZM164.785 48.159H159.725V48.786H165.093V49.776H158.438V45.563H165.005V46.564H159.725V47.18H164.785V48.159ZM166.127 51.47H157.272V50.436H166.127V51.47ZM165.104 54.605H158.394V51.954H159.681V53.582H165.104V54.605ZM175.645 50.227H166.79V49.204H175.645V50.227ZM174.831 54.825H167.846V52.328H173.203V51.767H167.857V50.766H174.479V53.23H169.133V53.769H174.831V54.825ZM169.1 46.971C169.1 47.1983 169.291 47.389 169.672 47.543C170.053 47.6897 170.574 47.763 171.234 47.763C171.894 47.763 172.415 47.6897 172.796 47.543C173.185 47.389 173.379 47.1983 173.379 46.971C173.379 46.7363 173.188 46.5493 172.807 46.41C172.426 46.2633 171.901 46.19 171.234 46.19C170.567 46.19 170.042 46.2633 169.661 46.41C169.287 46.5493 169.1 46.7363 169.1 46.971ZM167.769 46.971C167.769 46.4283 168.07 45.9993 168.671 45.684C169.28 45.3687 170.134 45.211 171.234 45.211C172.327 45.211 173.177 45.3687 173.786 45.684C174.395 45.9993 174.699 46.4283 174.699 46.971C174.699 47.5063 174.395 47.9353 173.786 48.258C173.177 48.5733 172.327 48.731 171.234 48.731C170.141 48.731 169.291 48.5733 168.682 48.258C168.073 47.9353 167.769 47.5063 167.769 46.971ZM187.029 49.49H184.246V50.117H188.052V51.151H179.197V50.117H182.959V49.49H180.363V45.431H186.941V46.432H181.65V46.982H186.611V47.95H181.65V48.489H187.029V49.49ZM186.193 51.987C186.765 52.295 187.051 52.713 187.051 53.241C187.051 53.769 186.765 54.187 186.193 54.495C185.629 54.8103 184.774 54.968 183.63 54.968C182.486 54.968 181.628 54.8103 181.056 54.495C180.492 54.187 180.209 53.769 180.209 53.241C180.209 52.713 180.492 52.295 181.056 51.987C181.628 51.6717 182.483 51.514 183.619 51.514C184.771 51.514 185.629 51.6717 186.193 51.987ZM185.72 53.241C185.72 53.0137 185.533 52.8377 185.159 52.713C184.785 52.581 184.272 52.515 183.619 52.515C182.981 52.515 182.475 52.581 182.101 52.713C181.727 52.8377 181.54 53.0137 181.54 53.241C181.54 53.461 181.727 53.6333 182.101 53.758C182.475 53.8827 182.981 53.945 183.619 53.945C184.272 53.945 184.785 53.8827 185.159 53.758C185.533 53.6333 185.72 53.461 185.72 53.241ZM197.053 54.869H195.832V50.062H195.018V54.418H193.819V45.244H195.018V49.028H195.832V45.068H197.053V54.869ZM192.609 49.358C193.005 49.7247 193.203 50.216 193.203 50.832C193.203 51.448 193.005 51.943 192.609 52.317C192.213 52.6837 191.696 52.867 191.058 52.867C190.427 52.867 189.91 52.6763 189.507 52.295C189.111 51.9063 188.913 51.4187 188.913 50.832C188.913 50.216 189.111 49.7247 189.507 49.358C189.91 48.984 190.427 48.797 191.058 48.797C191.696 48.797 192.213 48.984 192.609 49.358ZM188.704 48.434V47.411H193.379V48.434H188.704ZM192.048 50.832C192.048 50.5313 191.952 50.2857 191.762 50.095C191.578 49.9043 191.344 49.809 191.058 49.809C190.772 49.809 190.537 49.9043 190.354 50.095C190.17 50.2857 190.079 50.5313 190.079 50.832C190.079 51.14 190.17 51.3893 190.354 51.58C190.537 51.7633 190.772 51.855 191.058 51.855C191.344 51.855 191.578 51.7597 191.762 51.569C191.952 51.371 192.048 51.1253 192.048 50.832ZM189.771 46.85V45.827H192.411V46.85H189.771ZM208.844 45.596C208.844 47.2973 208.738 48.6907 208.525 49.776H209.977V50.799H206.171V54.869H204.884V50.799H201.122V49.776H207.304C207.48 48.9253 207.568 47.8767 207.568 46.63H202.211V45.596H208.844ZM214.908 46.245V52.317H210.937V46.245H214.908ZM218.978 54.869H217.746V49.952H216.954V54.418H215.744V45.244H216.954V48.918H217.746V45.068H218.978V54.869ZM213.698 51.327V47.235H212.147V51.327H213.698ZM231.154 54.869H229.867V45.068H231.154V54.869ZM229.13 51.679L228.382 52.647C227.964 52.3903 227.538 51.998 227.106 51.47C226.68 50.942 226.387 50.4323 226.226 49.941C226.064 50.4983 225.76 51.0557 225.313 51.613C224.865 52.163 224.389 52.5773 223.883 52.856L223.102 51.91C224.722 50.8613 225.533 49.3543 225.533 47.389V45.893H226.864V47.323C226.864 49.2517 227.619 50.7037 229.13 51.679ZM244.309 53.714H235.454V52.691H239.216V51.734C238.453 51.6533 237.852 51.4553 237.412 51.14C236.972 50.8173 236.752 50.4177 236.752 49.941C236.752 49.3983 237.038 48.962 237.61 48.632C238.182 48.2947 238.941 48.126 239.887 48.126C240.833 48.126 241.592 48.2947 242.164 48.632C242.736 48.962 243.022 49.3983 243.022 49.941C243.022 50.425 242.795 50.8283 242.34 51.151C241.893 51.4737 241.28 51.6717 240.503 51.745V52.691H244.309V53.714ZM243.77 47.807H235.993V46.795H243.77V47.807ZM241.713 49.941C241.713 49.677 241.537 49.4717 241.185 49.325C240.84 49.171 240.408 49.094 239.887 49.094C239.366 49.094 238.93 49.171 238.578 49.325C238.233 49.4717 238.061 49.677 238.061 49.941C238.061 50.2123 238.233 50.4213 238.578 50.568C238.923 50.7147 239.359 50.788 239.887 50.788C240.415 50.788 240.851 50.7147 241.196 50.568C241.541 50.4213 241.713 50.2123 241.713 49.941ZM238.138 46.289V45.277H241.603V46.289H238.138ZM253.079 54.869H251.792V45.068H253.079V54.869ZM251.055 51.679L250.307 52.647C249.889 52.3903 249.463 51.998 249.031 51.47C248.605 50.942 248.312 50.4323 248.151 49.941C247.989 50.4983 247.685 51.0557 247.238 51.613C246.79 52.163 246.314 52.5773 245.808 52.856L245.027 51.91C246.647 50.8613 247.458 49.3543 247.458 47.389V45.893H248.789V47.323C248.789 49.2517 249.544 50.7037 251.055 51.679ZM262.145 54.737H255.699V51.184H262.145V54.737ZM256.084 49.424C257.566 49.4533 258.842 49.3653 259.912 49.16L260.022 50.15C259.076 50.3553 257.654 50.458 255.754 50.458H254.808V45.673H259.23V46.696H256.084V47.521H259.032V48.555H256.084V49.424ZM263.498 48.412H262.145V50.7H260.847V45.068H262.145V47.356H263.498V48.412ZM260.858 53.725V52.174H256.986V53.725H260.858ZM271.663 54.737H265.217V51.184H271.663V54.737ZM265.602 49.424C267.083 49.4533 268.359 49.3653 269.43 49.16L269.54 50.15C268.594 50.3553 267.171 50.458 265.272 50.458H264.326V45.673H268.748V46.696H265.602V47.521H268.55V48.555H265.602V49.424ZM273.016 48.412H271.663V50.7H270.365V45.068H271.663V47.356H273.016V48.412ZM270.376 53.725V52.174H266.504V53.725H270.376ZM279.904 54.418H278.694V49.853H277.858C277.8 50.7183 277.591 51.4333 277.231 51.998C276.879 52.5553 276.381 52.834 275.735 52.834C275.259 52.834 274.855 52.6617 274.525 52.317C274.195 51.9723 273.961 51.5433 273.821 51.03C273.689 50.5167 273.623 49.941 273.623 49.303C273.623 48.6723 273.689 48.104 273.821 47.598C273.961 47.092 274.195 46.6667 274.525 46.322C274.855 45.9773 275.259 45.805 275.735 45.805C276.388 45.805 276.89 46.0873 277.242 46.652C277.594 47.2093 277.8 47.9243 277.858 48.797H278.694V45.255H279.904V54.418ZM281.862 54.869H280.652V45.068H281.862V54.869ZM276.45 51.03C276.604 50.59 276.681 50.018 276.681 49.314C276.681 48.61 276.604 48.038 276.45 47.598C276.296 47.1507 276.062 46.927 275.746 46.927C275.446 46.927 275.218 47.1507 275.064 47.598C274.91 48.038 274.833 48.61 274.833 49.314C274.833 50.0107 274.91 50.5827 275.064 51.03C275.218 51.47 275.446 51.69 275.746 51.69C276.062 51.69 276.296 51.47 276.45 51.03ZM291.16 54.869H289.862V49.468H288.091V48.379H289.862V45.068H291.16V54.869ZM289.004 51.723L288.267 52.691C287.834 52.427 287.391 52.0273 286.936 51.492C286.481 50.9493 286.173 50.4323 286.012 49.941C285.851 50.4983 285.546 51.0557 285.099 51.613C284.659 52.163 284.182 52.5773 283.669 52.856L282.899 51.91C284.52 50.854 285.33 49.347 285.33 47.389V45.893H286.65V47.323C286.65 48.2763 286.855 49.127 287.266 49.875C287.677 50.623 288.256 51.239 289.004 51.723ZM300.498 54.88H299.2V51.393H295.449V50.381H304.304V51.393H300.498V54.88ZM303.941 48.522L303.38 49.567C302.639 49.457 301.928 49.1893 301.246 48.764C300.571 48.3387 300.117 47.862 299.882 47.334C299.669 47.862 299.226 48.3387 298.551 48.764C297.884 49.182 297.169 49.4533 296.406 49.578L295.856 48.522C296.751 48.4267 297.532 48.1223 298.199 47.609C298.866 47.0957 299.2 46.487 299.2 45.783V45.277H300.564V45.783C300.564 46.2523 300.736 46.6923 301.081 47.103C301.433 47.5137 301.862 47.84 302.368 48.082C302.881 48.324 303.406 48.4707 303.941 48.522ZM313.063 50.788H311.787V45.079H313.063V50.788ZM306.441 51.272H313.074V54.88H311.787V52.295H306.441V51.272ZM305.242 47.972C305.242 47.2973 305.487 46.7327 305.979 46.278C306.477 45.816 307.082 45.585 307.794 45.585C308.505 45.585 309.106 45.816 309.598 46.278C310.089 46.7327 310.335 47.2973 310.335 47.972C310.335 48.654 310.093 49.2113 309.609 49.644C309.125 50.0693 308.52 50.282 307.794 50.282C307.075 50.282 306.47 50.0693 305.979 49.644C305.487 49.2113 305.242 48.654 305.242 47.972ZM306.496 47.961C306.496 48.3497 306.613 48.6687 306.848 48.918C307.09 49.1673 307.405 49.292 307.794 49.292C308.168 49.292 308.476 49.1673 308.718 48.918C308.96 48.6613 309.081 48.3423 309.081 47.961C309.081 47.587 308.963 47.2753 308.729 47.026C308.494 46.7693 308.182 46.641 307.794 46.641C307.412 46.641 307.101 46.773 306.859 47.037C306.617 47.2937 306.496 47.6017 306.496 47.961ZM322.58 54.869H321.304V45.068H322.58V54.869ZM315.43 51.778C314.983 51.14 314.759 50.2967 314.759 49.248C314.759 48.1993 314.983 47.3523 315.43 46.707C315.885 46.0617 316.505 45.739 317.289 45.739C318.081 45.739 318.701 46.0617 319.148 46.707C319.603 47.3523 319.83 48.1993 319.83 49.248C319.83 50.2893 319.603 51.1327 319.148 51.778C318.701 52.416 318.081 52.735 317.289 52.735C316.505 52.735 315.885 52.416 315.43 51.778ZM318.598 49.248C318.598 48.4853 318.477 47.884 318.235 47.444C317.993 46.9967 317.678 46.773 317.289 46.773C316.915 46.773 316.607 46.9967 316.365 47.444C316.131 47.884 316.013 48.4853 316.013 49.248C316.013 50.0033 316.131 50.601 316.365 51.041C316.607 51.481 316.915 51.701 317.289 51.701C317.678 51.701 317.993 51.481 318.235 51.041C318.477 50.601 318.598 50.0033 318.598 49.248ZM331.776 49.688H327.145V45.442H328.41V46.674H330.489V45.42H331.776V49.688ZM330.489 48.687V47.686H328.41V48.687H330.489ZM335.934 48.137H334.559V50.04H333.25V45.068H334.559V47.081H335.934V48.137ZM334.834 54.792H328.157V52.196H333.25V51.569H328.08V50.546H334.559V53.142H329.433V53.758H334.834V54.792ZM344.824 52.889C344.824 53.4903 344.516 53.9707 343.9 54.33C343.291 54.6893 342.459 54.869 341.403 54.869C340.347 54.869 339.515 54.6893 338.906 54.33C338.297 53.9707 337.993 53.4903 337.993 52.889C337.993 52.2803 338.297 51.8 338.906 51.448C339.515 51.0887 340.347 50.909 341.403 50.909C342.466 50.909 343.302 51.0887 343.911 51.448C344.52 51.8 344.824 52.2803 344.824 52.889ZM344.747 50.953H343.526V48.522H342.723V50.568H341.535V45.244H342.723V47.488H343.526V45.068H344.747V50.953ZM341.337 49.413L340.688 50.381C340.351 50.2343 340.002 49.9923 339.643 49.655C339.284 49.3103 339.042 48.984 338.917 48.676C338.778 49.0647 338.528 49.4497 338.169 49.831C337.817 50.2123 337.436 50.4983 337.025 50.689L336.321 49.776C336.93 49.4387 337.403 49.0023 337.74 48.467C338.085 47.9317 338.257 47.3267 338.257 46.652V45.684H339.5V46.619C339.5 47.2643 339.669 47.829 340.006 48.313C340.351 48.7897 340.794 49.1563 341.337 49.413ZM342.943 53.582C343.324 53.4133 343.515 53.1823 343.515 52.889C343.515 52.5957 343.324 52.3647 342.943 52.196C342.569 52.0273 342.056 51.943 341.403 51.943C340.765 51.943 340.259 52.0273 339.885 52.196C339.511 52.3647 339.324 52.5957 339.324 52.889C339.324 53.1823 339.511 53.4133 339.885 53.582C340.259 53.7507 340.765 53.835 341.403 53.835C342.056 53.835 342.569 53.7507 342.943 53.582ZM354.969 48.797H353.594V50.854H352.307V45.068H353.594V47.741H354.969V48.797ZM353.594 54.792H347.236V51.327H348.512V52.086H352.307V51.316H353.594V54.792ZM352.307 53.78V53.087H348.512V53.78H352.307ZM351.592 47.675H345.85V46.707H351.592V47.675ZM347.324 46.245V45.266H350.228V46.245H347.324ZM351.097 49.468C351.097 49.9447 350.877 50.3297 350.437 50.623C350.004 50.9163 349.45 51.063 348.776 51.063C348.094 51.063 347.529 50.9163 347.082 50.623C346.634 50.3297 346.411 49.9447 346.411 49.468C346.411 49.006 346.634 48.6283 347.082 48.335C347.529 48.0343 348.094 47.884 348.776 47.884C349.443 47.884 349.997 48.0343 350.437 48.335C350.877 48.6283 351.097 49.006 351.097 49.468ZM347.698 49.468C347.698 49.666 347.8 49.8237 348.006 49.941C348.218 50.0583 348.475 50.117 348.776 50.117C349.069 50.117 349.318 50.0583 349.524 49.941C349.729 49.8237 349.832 49.666 349.832 49.468C349.832 49.2773 349.729 49.1233 349.524 49.006C349.318 48.8887 349.069 48.83 348.776 48.83C348.468 48.83 348.211 48.8887 348.006 49.006C347.8 49.1233 347.698 49.2773 347.698 49.468ZM363.529 45.068V54.869H362.264V45.068H363.529ZM361.263 50.942L361.428 51.976C360.886 52.1153 360.163 52.2253 359.261 52.306C358.359 52.3793 357.567 52.416 356.885 52.416H355.983V46.047H357.259V51.316C358.88 51.316 360.215 51.1913 361.263 50.942ZM372.618 45.068V48.764H374.026V49.831H372.618V54.869H371.331V45.068H372.618ZM366.612 51.536C368.321 51.536 369.611 51.437 370.484 51.239C370.499 51.349 370.521 51.5213 370.55 51.756C370.579 51.9833 370.605 52.152 370.627 52.262C369.769 52.482 368.321 52.592 366.282 52.592H365.336V45.97H369.813V47.004H366.612V51.536ZM118.068 66.16C118.296 66.38 118.409 66.6477 118.409 66.963C118.409 67.2783 118.296 67.5497 118.068 67.777C117.848 67.997 117.577 68.107 117.254 68.107C116.939 68.107 116.668 67.997 116.44 67.777C116.22 67.5497 116.11 67.2783 116.11 66.963C116.11 66.6477 116.22 66.38 116.44 66.16C116.668 65.9327 116.939 65.819 117.254 65.819C117.57 65.819 117.841 65.9327 118.068 66.16ZM130.714 66.688H126.083V62.442H127.348V63.674H129.427V62.42H130.714V66.688ZM129.427 65.687V64.686H127.348V65.687H129.427ZM134.872 65.137H133.497V67.04H132.188V62.068H133.497V64.081H134.872V65.137ZM133.772 71.792H127.095V69.196H132.188V68.569H127.018V67.546H133.497V70.142H128.371V70.758H133.772V71.792ZM143.763 69.889C143.763 70.4903 143.455 70.9707 142.839 71.33C142.23 71.6893 141.398 71.869 140.342 71.869C139.286 71.869 138.453 71.6893 137.845 71.33C137.236 70.9707 136.932 70.4903 136.932 69.889C136.932 69.2803 137.236 68.8 137.845 68.448C138.453 68.0887 139.286 67.909 140.342 67.909C141.405 67.909 142.241 68.0887 142.85 68.448C143.458 68.8 143.763 69.2803 143.763 69.889ZM143.686 67.953H142.465V65.522H141.662V67.568H140.474V62.244H141.662V64.488H142.465V62.068H143.686V67.953ZM140.276 66.413L139.627 67.381C139.289 67.2343 138.941 66.9923 138.582 66.655C138.222 66.3103 137.98 65.984 137.856 65.676C137.716 66.0647 137.467 66.4497 137.108 66.831C136.756 67.2123 136.374 67.4983 135.964 67.689L135.26 66.776C135.868 66.4387 136.341 66.0023 136.679 65.467C137.023 64.9317 137.196 64.3267 137.196 63.652V62.684H138.439V63.619C138.439 64.2643 138.607 64.829 138.945 65.313C139.289 65.7897 139.733 66.1563 140.276 66.413ZM141.882 70.582C142.263 70.4133 142.454 70.1823 142.454 69.889C142.454 69.5957 142.263 69.3647 141.882 69.196C141.508 69.0273 140.994 68.943 140.342 68.943C139.704 68.943 139.198 69.0273 138.824 69.196C138.45 69.3647 138.263 69.5957 138.263 69.889C138.263 70.1823 138.45 70.4133 138.824 70.582C139.198 70.7507 139.704 70.835 140.342 70.835C140.994 70.835 141.508 70.7507 141.882 70.582ZM150.475 64.829H144.788V63.828H150.475V64.829ZM150.002 66.908C150.002 67.4287 149.782 67.8577 149.342 68.195C148.909 68.525 148.359 68.69 147.692 68.69C147.017 68.69 146.46 68.525 146.02 68.195C145.58 67.8577 145.36 67.4287 145.36 66.908C145.36 66.3873 145.58 65.9583 146.02 65.621C146.46 65.2763 147.017 65.104 147.692 65.104C148.352 65.104 148.902 65.2763 149.342 65.621C149.782 65.9657 150.002 66.3947 150.002 66.908ZM146.24 63.366V62.387H149.155V63.366H146.24ZM152.532 62.068V65.236H153.896V66.303H152.532V69.35H151.245V62.068H152.532ZM152.763 71.638H146.064V69.053H147.362V70.615H152.763V71.638ZM146.636 66.908C146.636 67.1207 146.739 67.3003 146.944 67.447C147.149 67.5863 147.399 67.656 147.692 67.656C147.978 67.656 148.224 67.5863 148.429 67.447C148.642 67.3003 148.748 67.1207 148.748 66.908C148.748 66.6807 148.642 66.4937 148.429 66.347C148.224 66.2003 147.978 66.127 147.692 66.127C147.399 66.127 147.149 66.2003 146.944 66.347C146.739 66.4937 146.636 66.6807 146.636 66.908ZM162.321 71.88H161.023V68.393H157.272V67.381H166.127V68.393H162.321V71.88ZM165.764 65.522L165.203 66.567C164.463 66.457 163.751 66.1893 163.069 65.764C162.395 65.3387 161.94 64.862 161.705 64.334C161.493 64.862 161.049 65.3387 160.374 65.764C159.707 66.182 158.992 66.4533 158.229 66.578L157.679 65.522C158.574 65.4267 159.355 65.1223 160.022 64.609C160.69 64.0957 161.023 63.487 161.023 62.783V62.277H162.387V62.783C162.387 63.2523 162.56 63.6923 162.904 64.103C163.256 64.5137 163.685 64.84 164.191 65.082C164.705 65.324 165.229 65.4707 165.764 65.522ZM174.886 67.788H173.61V62.079H174.886V67.788ZM168.264 68.272H174.897V71.88H173.61V69.295H168.264V68.272ZM167.065 64.972C167.065 64.2973 167.311 63.7327 167.802 63.278C168.301 62.816 168.906 62.585 169.617 62.585C170.328 62.585 170.93 62.816 171.421 63.278C171.912 63.7327 172.158 64.2973 172.158 64.972C172.158 65.654 171.916 66.2113 171.432 66.644C170.948 67.0693 170.343 67.282 169.617 67.282C168.898 67.282 168.293 67.0693 167.802 66.644C167.311 66.2113 167.065 65.654 167.065 64.972ZM168.319 64.961C168.319 65.3497 168.436 65.6687 168.671 65.918C168.913 66.1673 169.228 66.292 169.617 66.292C169.991 66.292 170.299 66.1673 170.541 65.918C170.783 65.6613 170.904 65.3423 170.904 64.961C170.904 64.587 170.787 64.2753 170.552 64.026C170.317 63.7693 170.006 63.641 169.617 63.641C169.236 63.641 168.924 63.773 168.682 64.037C168.44 64.2937 168.319 64.6017 168.319 64.961ZM185.163 68.03H176.308V66.996H185.163V68.03ZM184.14 71.605H177.397V68.745H178.684V70.593H184.14V71.605ZM184.162 64.389C184.162 64.9757 183.854 65.4523 183.238 65.819C182.629 66.1857 181.797 66.369 180.741 66.369C179.685 66.369 178.852 66.1857 178.244 65.819C177.635 65.4523 177.331 64.9757 177.331 64.389C177.331 63.817 177.635 63.3477 178.244 62.981C178.852 62.6143 179.681 62.431 180.73 62.431C181.786 62.431 182.622 62.6143 183.238 62.981C183.854 63.3477 184.162 63.817 184.162 64.389ZM182.831 64.411C182.831 64.1103 182.64 63.872 182.259 63.696C181.885 63.5127 181.375 63.421 180.73 63.421C180.099 63.421 179.593 63.5127 179.212 63.696C178.838 63.872 178.651 64.1103 178.651 64.411C178.651 64.697 178.838 64.928 179.212 65.104C179.593 65.28 180.099 65.368 180.73 65.368C181.375 65.368 181.885 65.28 182.259 65.104C182.64 64.928 182.831 64.697 182.831 64.411ZM196.833 71.869H195.535V66.468H193.764V65.379H195.535V62.068H196.833V71.869ZM194.677 68.723L193.94 69.691C193.507 69.427 193.063 69.0273 192.609 68.492C192.154 67.9493 191.846 67.4323 191.685 66.941C191.523 67.4983 191.219 68.0557 190.772 68.613C190.332 69.163 189.855 69.5773 189.342 69.856L188.572 68.91C190.192 67.854 191.003 66.347 191.003 64.389V62.893H192.323V64.323C192.323 65.2763 192.528 66.127 192.939 66.875C193.349 67.623 193.929 68.239 194.677 68.723ZM206.328 71.869H205.052V62.068H206.328V71.869ZM203.347 69.449H198.716V62.86H199.992V65.214H202.049V62.838H203.347V69.449ZM202.049 68.437V66.226H199.992V68.437H202.049ZM216.605 70.593H207.75V69.57H216.605V70.593ZM216.418 66.578L215.769 67.579C215.043 67.4103 214.328 67.084 213.624 66.6C212.92 66.116 212.436 65.5697 212.172 64.961C211.93 65.5843 211.45 66.1453 210.731 66.644C210.02 67.1353 209.297 67.4617 208.564 67.623L207.959 66.578C208.516 66.4973 209.059 66.314 209.587 66.028C210.122 65.742 210.577 65.357 210.951 64.873C211.325 64.3817 211.512 63.861 211.512 63.311V62.662H212.854V63.311C212.854 63.641 212.927 63.9673 213.074 64.29C213.228 64.6053 213.43 64.8877 213.679 65.137C213.928 65.3863 214.207 65.6137 214.515 65.819C214.83 66.017 215.149 66.182 215.472 66.314C215.795 66.4387 216.11 66.5267 216.418 66.578ZM226.123 67.491H217.268V66.545H226.123V67.491ZM225.221 71.759H218.389V69.482H223.714V68.965H218.346V68.041H224.99V70.329H219.677V70.835H225.221V71.759ZM225.144 66.028H218.434V63.806H223.637V63.289H218.412V62.376H224.935V64.609H219.721V65.115H225.144V66.028ZM237.408 62.453V66.413H230.808V62.453H237.408ZM234.724 71.88H233.437V68.624H229.675V67.601H238.53V68.624H234.724V71.88ZM236.132 65.39V63.476H232.095V65.39H236.132ZM247.211 68.096H245.792V69.625H248.047V70.648H239.192V69.625H241.425V68.096H240.325V64.851H245.649V63.718H240.27V62.695H246.925V65.874H241.601V67.062H247.211V68.096ZM242.679 68.096V69.625H244.549V68.096H242.679ZM256.729 68.096H253.759V69.625H257.565V70.648H248.71V69.625H252.472V68.096H249.843V64.851H255.167V63.718H249.788V62.695H256.443V65.874H251.119V67.062H256.729V68.096ZM268.971 64.312C268.971 64.8987 268.663 65.3753 268.047 65.742C267.438 66.1087 266.606 66.292 265.55 66.292C264.494 66.292 263.662 66.1087 263.053 65.742C262.444 65.3753 262.14 64.8987 262.14 64.312C262.14 63.74 262.444 63.2707 263.053 62.904C263.662 62.5373 264.49 62.354 265.539 62.354C266.595 62.354 267.431 62.5373 268.047 62.904C268.663 63.2707 268.971 63.74 268.971 64.312ZM266.276 69.713H265V67.942H261.117V66.919H269.972V67.942H266.276V69.713ZM268.949 71.605H262.25V68.811H263.526V70.593H268.949V71.605ZM267.64 64.334C267.64 64.0333 267.449 63.7913 267.068 63.608C266.694 63.4247 266.184 63.333 265.539 63.333C264.908 63.333 264.402 63.4247 264.021 63.608C263.647 63.7913 263.46 64.0333 263.46 64.334C263.46 64.62 263.647 64.851 264.021 65.027C264.402 65.203 264.908 65.291 265.539 65.291C266.184 65.291 266.694 65.203 267.068 65.027C267.449 64.851 267.64 64.62 267.64 64.334ZM278.753 69.9C278.753 70.5013 278.452 70.978 277.851 71.33C277.257 71.682 276.435 71.858 275.387 71.858C274.338 71.858 273.517 71.682 272.923 71.33C272.329 70.978 272.032 70.5013 272.032 69.9C272.032 69.284 272.325 68.8 272.912 68.448C273.506 68.096 274.331 67.92 275.387 67.92C276.443 67.92 277.268 68.096 277.862 68.448C278.456 68.8 278.753 69.284 278.753 69.9ZM275.739 64.972C275.739 65.654 275.5 66.2003 275.024 66.611C274.547 67.0217 273.942 67.227 273.209 67.227C272.483 67.227 271.878 67.0217 271.394 66.611C270.91 66.193 270.668 65.6467 270.668 64.972C270.668 64.2973 270.91 63.74 271.394 63.3C271.885 62.8527 272.49 62.629 273.209 62.629C273.927 62.629 274.529 62.8527 275.013 63.3C275.497 63.74 275.739 64.2973 275.739 64.972ZM276.047 66.611C276.047 66.5303 276.05 66.4167 276.058 66.27C276.065 66.1233 276.069 65.9913 276.069 65.874C276.076 65.7493 276.08 65.6357 276.08 65.533H277.455V64.301H276.08L276.047 63.212H277.455V62.068H278.742V67.942H277.455V66.611H276.047ZM277.433 69.9C277.433 69.5993 277.253 69.3683 276.894 69.207C276.534 69.0383 276.032 68.954 275.387 68.954C274.749 68.954 274.246 69.0383 273.88 69.207C273.52 69.3757 273.341 69.6067 273.341 69.9C273.341 70.1933 273.52 70.4207 273.88 70.582C274.246 70.7433 274.749 70.824 275.387 70.824C276.032 70.824 276.534 70.7433 276.894 70.582C277.253 70.4207 277.433 70.1933 277.433 69.9ZM274.507 64.961C274.507 64.5943 274.389 64.29 274.155 64.048C273.92 63.806 273.605 63.685 273.209 63.685C272.827 63.685 272.516 63.8097 272.274 64.059C272.039 64.301 271.922 64.6017 271.922 64.961C271.922 65.3423 272.039 65.654 272.274 65.896C272.516 66.1307 272.827 66.248 273.209 66.248C273.59 66.248 273.902 66.127 274.144 65.885C274.386 65.643 274.507 65.335 274.507 64.961ZM285.795 65.423H280.108V64.4H285.795V65.423ZM281.483 63.718V62.706H284.508V63.718H281.483ZM287.819 62.068V66.039H289.183V67.106H287.819V71.869H286.521V62.068H287.819ZM280.592 67.876C280.592 67.2673 280.812 66.765 281.252 66.369C281.692 65.9657 282.261 65.764 282.957 65.764C283.661 65.764 284.23 65.962 284.662 66.358C285.102 66.754 285.322 67.26 285.322 67.876C285.322 68.4847 285.102 68.9907 284.662 69.394C284.222 69.79 283.654 69.988 282.957 69.988C282.253 69.988 281.681 69.7937 281.241 69.405C280.809 69.009 280.592 68.4993 280.592 67.876ZM281.846 67.876C281.846 68.1913 281.949 68.448 282.154 68.646C282.367 68.844 282.635 68.943 282.957 68.943C283.309 68.943 283.581 68.8477 283.771 68.657C283.969 68.459 284.068 68.1987 284.068 67.876C284.068 67.5533 283.962 67.293 283.749 67.095C283.544 66.897 283.28 66.798 282.957 66.798C282.635 66.798 282.367 66.897 282.154 67.095C281.949 67.293 281.846 67.5533 281.846 67.876ZM297.777 71.869H296.49V62.068H297.777V71.869ZM294.763 63.091C294.682 66.215 293.223 68.5507 290.385 70.098L289.593 69.13C290.649 68.646 291.522 67.9457 292.211 67.029C292.9 66.105 293.289 65.148 293.377 64.158H290.187V63.091H294.763ZM307.797 64.62C307.797 65.2067 307.555 65.6943 307.071 66.083C306.594 66.4643 305.982 66.655 305.234 66.655C304.479 66.655 303.866 66.4643 303.397 66.083C302.928 65.7017 302.693 65.214 302.693 64.62C302.693 64.0113 302.928 63.5127 303.397 63.124C303.866 62.728 304.479 62.53 305.234 62.53C305.997 62.53 306.613 62.728 307.082 63.124C307.559 63.5127 307.797 64.0113 307.797 64.62ZM310.239 62.068V71.869H308.963V62.068H310.239ZM305.916 71.583H304.607V68.338C303.676 68.382 302.869 68.404 302.187 68.404L302 67.348C304.376 67.348 306.525 67.249 308.446 67.051L308.556 68.041C307.903 68.129 307.023 68.206 305.916 68.272V71.583ZM306.51 64.609C306.51 64.3083 306.389 64.0627 306.147 63.872C305.912 63.674 305.608 63.575 305.234 63.575C304.875 63.575 304.574 63.674 304.332 63.872C304.097 64.0627 303.98 64.3083 303.98 64.609C303.98 64.9023 304.097 65.1407 304.332 65.324C304.567 65.5073 304.867 65.599 305.234 65.599C305.615 65.599 305.923 65.5073 306.158 65.324C306.393 65.1407 306.51 64.9023 306.51 64.609ZM319.933 71.869H318.712V67.062H317.898V71.418H316.699V62.244H317.898V66.028H318.712V62.068H319.933V71.869ZM315.489 66.358C315.885 66.7247 316.083 67.216 316.083 67.832C316.083 68.448 315.885 68.943 315.489 69.317C315.093 69.6837 314.576 69.867 313.938 69.867C313.307 69.867 312.79 69.6763 312.387 69.295C311.991 68.9063 311.793 68.4187 311.793 67.832C311.793 67.216 311.991 66.7247 312.387 66.358C312.79 65.984 313.307 65.797 313.938 65.797C314.576 65.797 315.093 65.984 315.489 66.358ZM311.584 65.434V64.411H316.259V65.434H311.584ZM314.928 67.832C314.928 67.5313 314.832 67.2857 314.642 67.095C314.458 66.9043 314.224 66.809 313.938 66.809C313.652 66.809 313.417 66.9043 313.234 67.095C313.05 67.2857 312.959 67.5313 312.959 67.832C312.959 68.14 313.05 68.3893 313.234 68.58C313.417 68.7633 313.652 68.855 313.938 68.855C314.224 68.855 314.458 68.7597 314.642 68.569C314.832 68.371 314.928 68.1253 314.928 67.832ZM312.651 63.85V62.827H315.291V63.85H312.651ZM331.658 62.068V65.841H333.066V66.897H331.658V71.869H330.382V62.068H331.658ZM329.898 68.569C329.81 68.679 329.682 68.8403 329.513 69.053C329.352 69.2657 329.227 69.4233 329.139 69.526C328.692 69.24 328.241 68.8367 327.786 68.316C327.331 67.7953 327.027 67.2857 326.873 66.787C326.712 67.337 326.411 67.8907 325.971 68.448C325.531 68.998 325.058 69.4233 324.552 69.724C324.193 69.284 323.929 68.9723 323.76 68.789C325.381 67.7477 326.191 66.2297 326.191 64.235V62.893H327.522V64.169C327.522 65.1223 327.727 65.973 328.138 66.721C328.556 67.469 329.143 68.085 329.898 68.569ZM334.52 64.18C334.52 63.6227 334.821 63.168 335.422 62.816C336.031 62.464 336.871 62.288 337.941 62.288C339.019 62.288 339.859 62.464 340.46 62.816C341.069 63.168 341.373 63.6227 341.373 64.18C341.373 64.8107 341.003 65.2983 340.262 65.643V66.798H342.374V67.821H333.519V66.798H335.587V65.61C334.876 65.258 334.52 64.7813 334.52 64.18ZM341.362 70.043C341.362 70.615 341.062 71.0623 340.46 71.385C339.866 71.715 339.03 71.88 337.952 71.88C336.874 71.88 336.035 71.715 335.433 71.385C334.839 71.0623 334.542 70.615 334.542 70.043C334.542 69.4857 334.839 69.0457 335.433 68.723C336.035 68.393 336.871 68.228 337.941 68.228C339.019 68.228 339.859 68.393 340.46 68.723C341.062 69.0457 341.362 69.4857 341.362 70.043ZM335.851 64.18C335.851 64.444 336.038 64.6603 336.412 64.829C336.786 64.9903 337.296 65.071 337.941 65.071C338.579 65.071 339.089 64.9903 339.47 64.829C339.859 64.6603 340.053 64.444 340.053 64.18C340.053 63.9087 339.866 63.6887 339.492 63.52C339.118 63.3513 338.601 63.267 337.941 63.267C337.289 63.267 336.775 63.3513 336.401 63.52C336.035 63.6887 335.851 63.9087 335.851 64.18ZM339.47 70.648C339.852 70.5013 340.042 70.3033 340.042 70.054C340.042 69.8047 339.852 69.6103 339.47 69.471C339.096 69.3243 338.587 69.251 337.941 69.251C337.303 69.251 336.797 69.3243 336.423 69.471C336.049 69.6103 335.862 69.8047 335.862 70.054C335.862 70.3033 336.049 70.5013 336.423 70.648C336.797 70.7873 337.303 70.857 337.941 70.857C338.587 70.857 339.096 70.7873 339.47 70.648ZM337.952 66.061C337.622 66.061 337.263 66.0353 336.874 65.984V66.798H338.975V65.995C338.653 66.039 338.312 66.061 337.952 66.061ZM351.21 71.748H344.654V68.206H345.941V69.009H349.901V68.184H351.21V71.748ZM349.527 67.37C348.449 67.502 347.4 67.5863 346.381 67.623C344.782 67.689 343.704 67.722 343.147 67.722L342.96 66.699C343.965 66.699 344.852 66.6843 345.622 66.655V65.709H343.928V62.508H348.526V63.531H345.204V64.686H348.603V65.709H346.92V66.6C347.866 66.556 348.695 66.4937 349.406 66.413L349.527 67.37ZM351.21 62.068V67.7H349.912V62.068H351.21ZM349.901 70.747V69.977H345.941V70.747H349.901ZM360.64 62.068V71.869H359.375V62.068H360.64ZM358.374 67.942L358.539 68.976C357.996 69.1153 357.274 69.2253 356.372 69.306C355.47 69.3793 354.678 69.416 353.996 69.416H353.094V63.047H354.37V68.316C355.99 68.316 357.325 68.1913 358.374 67.942ZM369.728 62.068V65.764H371.136V66.831H369.728V71.869H368.441V62.068H369.728ZM363.722 68.536C365.431 68.536 366.722 68.437 367.594 68.239C367.609 68.349 367.631 68.5213 367.66 68.756C367.69 68.9833 367.715 69.152 367.737 69.262C366.879 69.482 365.431 69.592 363.392 69.592H362.446V62.97H366.923V64.004H363.722V68.536Z" fill="white"/>
</svg>
