<svg width="79" height="35" viewBox="0 0 79 35" fill="none" xmlns="http://www.w3.org/2000/svg">
<path d="M75.8515 10.928C76.0594 12.1271 75.4385 13.5423 73.8243 15.1179C72.2266 16.6773 69.7622 18.2838 66.5868 19.8345C60.2434 22.9322 51.1902 25.7461 40.9344 27.5243C30.6786 29.3026 21.2066 29.701 14.1906 28.9197C10.6785 28.5285 7.81707 27.8455 5.78765 26.915C3.7372 25.9748 2.67617 24.8513 2.46824 23.6521C2.26032 22.453 2.88116 21.0378 4.49539 19.4622C6.09306 17.9028 8.55752 16.2963 11.7329 14.7456C18.0763 11.6478 27.1295 8.83402 37.3853 7.05574C47.6411 5.27745 57.1131 4.87912 64.1291 5.66043C67.6412 6.05155 70.5026 6.73459 72.5321 7.66511C74.5825 8.60529 75.6435 9.72883 75.8515 10.928Z" stroke="#FFC3F9" stroke-width="1.2"/>
<path d="M40.0044 16.708C40.0044 16.888 39.9684 17.008 39.8964 17.068C39.8244 17.128 39.7044 17.158 39.5364 17.158H38.0604V24.34C38.0604 24.52 38.0244 24.64 37.9524 24.7C37.8804 24.76 37.7604 24.79 37.5924 24.79H35.0724C34.9044 24.79 34.7844 24.76 34.7124 24.7C34.6404 24.64 34.6044 24.52 34.6044 24.34V8.5C34.6044 8.32 34.6404 8.2 34.7124 8.14C34.7844 8.08 34.9044 8.05 35.0724 8.05H37.5924C37.7604 8.05 37.8804 8.08 37.9524 8.14C38.0244 8.2 38.0604 8.32 38.0604 8.5V14.17H39.5364C39.7044 14.17 39.8244 14.2 39.8964 14.26C39.9684 14.32 40.0044 14.44 40.0044 14.62V16.708ZM28.0704 8.5C28.0704 8.32 28.1064 8.2 28.1784 8.14C28.2504 8.08 28.3704 8.05 28.5384 8.05H30.9504C31.4064 8.05 31.7964 8.104 32.1204 8.212C32.4444 8.32 32.7084 8.5 32.9124 8.752C33.1284 8.992 33.2784 9.31 33.3624 9.706C33.4584 10.09 33.5004 10.564 33.4884 11.128C33.4764 11.944 33.4404 12.868 33.3804 13.9C33.3204 14.932 33.2304 16.012 33.1104 17.14C33.0024 18.268 32.8584 19.414 32.6784 20.578C32.5104 21.73 32.3004 22.834 32.0484 23.89C32.0004 24.07 31.9524 24.19 31.9044 24.25C31.8564 24.31 31.7484 24.34 31.5804 24.34L29.2044 23.818C29.1204 23.806 29.0424 23.788 28.9704 23.764C28.9104 23.752 28.8564 23.722 28.8084 23.674C28.7604 23.626 28.7304 23.56 28.7184 23.476C28.7184 23.404 28.7364 23.296 28.7724 23.152C29.0244 22.24 29.2344 21.28 29.4024 20.272C29.5824 19.252 29.7264 18.256 29.8344 17.284C29.9424 16.3 30.0204 15.364 30.0684 14.476C30.1164 13.576 30.1404 12.79 30.1404 12.118C30.1404 11.662 30.0744 11.368 29.9424 11.236C29.8104 11.104 29.5884 11.038 29.2764 11.038H28.5384C28.3704 11.038 28.2504 11.008 28.1784 10.948C28.1064 10.888 28.0704 10.768 28.0704 10.588V8.5ZM22.2384 8.5C22.2384 8.32 22.2744 8.2 22.3464 8.14C22.4184 8.08 22.5384 8.05 22.7064 8.05H25.1184C25.5744 8.05 25.9644 8.104 26.2884 8.212C26.6124 8.32 26.8764 8.5 27.0804 8.752C27.2844 8.992 27.4284 9.31 27.5124 9.706C27.6084 10.09 27.6564 10.564 27.6564 11.128C27.6564 12.028 27.6264 12.982 27.5664 13.99C27.5184 14.998 27.4344 16.036 27.3144 17.104C27.1944 18.16 27.0444 19.234 26.8644 20.326C26.6844 21.406 26.4684 22.474 26.2164 23.53C26.1684 23.71 26.1204 23.83 26.0724 23.89C26.0244 23.95 25.9164 23.98 25.7484 23.98L23.3724 23.458C23.2884 23.446 23.2104 23.428 23.1384 23.404C23.0784 23.392 23.0244 23.362 22.9764 23.314C22.9284 23.266 22.8984 23.2 22.8864 23.116C22.8864 23.044 22.9044 22.936 22.9404 22.792C23.1924 21.88 23.4024 20.938 23.5704 19.966C23.7504 18.982 23.8944 18.022 24.0024 17.086C24.1104 16.15 24.1884 15.256 24.2364 14.404C24.2844 13.552 24.3084 12.79 24.3084 12.118C24.3084 11.662 24.2304 11.368 24.0744 11.236C23.9184 11.104 23.6844 11.038 23.3724 11.038H22.7064C22.5384 11.038 22.4184 11.008 22.3464 10.948C22.2744 10.888 22.2384 10.768 22.2384 10.588V8.5Z" fill="#FF40B4"/>
<path d="M76.3892 16.708C76.3892 16.888 76.3532 17.008 76.2812 17.068C76.2092 17.128 76.0892 17.158 75.9212 17.158H74.4452V24.34C74.4452 24.52 74.4092 24.64 74.3372 24.7C74.2652 24.76 74.1452 24.79 73.9772 24.79H71.4572C71.2892 24.79 71.1692 24.76 71.0972 24.7C71.0252 24.64 70.9892 24.52 70.9892 24.34V8.5C70.9892 8.32 71.0252 8.2 71.0972 8.14C71.1692 8.08 71.2892 8.05 71.4572 8.05H73.9772C74.1452 8.05 74.2652 8.08 74.3372 8.14C74.4092 8.2 74.4452 8.32 74.4452 8.5V14.17H75.9212C76.0892 14.17 76.2092 14.2 76.2812 14.26C76.3532 14.32 76.3892 14.44 76.3892 14.62V16.708ZM64.4552 8.5C64.4552 8.32 64.4912 8.2 64.5632 8.14C64.6352 8.08 64.7552 8.05 64.9232 8.05H67.3352C67.7912 8.05 68.1812 8.104 68.5052 8.212C68.8292 8.32 69.0932 8.5 69.2972 8.752C69.5132 8.992 69.6632 9.31 69.7472 9.706C69.8432 10.09 69.8852 10.564 69.8732 11.128C69.8612 11.944 69.8252 12.868 69.7652 13.9C69.7052 14.932 69.6152 16.012 69.4952 17.14C69.3872 18.268 69.2432 19.414 69.0632 20.578C68.8952 21.73 68.6852 22.834 68.4332 23.89C68.3852 24.07 68.3372 24.19 68.2892 24.25C68.2412 24.31 68.1332 24.34 67.9652 24.34L65.5892 23.818C65.5052 23.806 65.4272 23.788 65.3552 23.764C65.2952 23.752 65.2412 23.722 65.1932 23.674C65.1452 23.626 65.1152 23.56 65.1032 23.476C65.1032 23.404 65.1212 23.296 65.1572 23.152C65.4092 22.24 65.6192 21.28 65.7872 20.272C65.9672 19.252 66.1112 18.256 66.2192 17.284C66.3272 16.3 66.4052 15.364 66.4532 14.476C66.5012 13.576 66.5252 12.79 66.5252 12.118C66.5252 11.662 66.4592 11.368 66.3272 11.236C66.1952 11.104 65.9732 11.038 65.6612 11.038H64.9232C64.7552 11.038 64.6352 11.008 64.5632 10.948C64.4912 10.888 64.4552 10.768 64.4552 10.588V8.5ZM58.6232 8.5C58.6232 8.32 58.6592 8.2 58.7312 8.14C58.8032 8.08 58.9232 8.05 59.0912 8.05H61.5032C61.9592 8.05 62.3492 8.104 62.6732 8.212C62.9972 8.32 63.2612 8.5 63.4652 8.752C63.6692 8.992 63.8132 9.31 63.8972 9.706C63.9932 10.09 64.0412 10.564 64.0412 11.128C64.0412 12.028 64.0112 12.982 63.9512 13.99C63.9032 14.998 63.8192 16.036 63.6992 17.104C63.5792 18.16 63.4292 19.234 63.2492 20.326C63.0692 21.406 62.8532 22.474 62.6012 23.53C62.5532 23.71 62.5052 23.83 62.4572 23.89C62.4092 23.95 62.3012 23.98 62.1332 23.98L59.7572 23.458C59.6732 23.446 59.5952 23.428 59.5232 23.404C59.4632 23.392 59.4092 23.362 59.3612 23.314C59.3132 23.266 59.2832 23.2 59.2712 23.116C59.2712 23.044 59.2892 22.936 59.3252 22.792C59.5772 21.88 59.7872 20.938 59.9552 19.966C60.1352 18.982 60.2792 18.022 60.3872 17.086C60.4952 16.15 60.5732 15.256 60.6212 14.404C60.6692 13.552 60.6932 12.79 60.6932 12.118C60.6932 11.662 60.6152 11.368 60.4592 11.236C60.3032 11.104 60.0692 11.038 59.7572 11.038H59.0912C58.9232 11.038 58.8032 11.008 58.7312 10.948C58.6592 10.888 58.6232 10.768 58.6232 10.588V8.5Z" fill="#FF40B4"/>
<path d="M56.2898 24.394C56.3138 24.538 56.2838 24.628 56.1998 24.664C56.1158 24.7 55.9898 24.73 55.8218 24.754C54.9938 24.838 54.1718 24.904 53.3558 24.952C52.5518 25 51.7178 25.036 50.8538 25.06C49.9898 25.096 49.0838 25.12 48.1358 25.132C47.1998 25.144 46.1858 25.15 45.0938 25.15C43.9778 25.15 43.1618 24.916 42.6458 24.448C42.1298 23.992 41.8718 23.248 41.8718 22.216V20.11C41.8718 19.942 41.9078 19.828 41.9798 19.768C42.0518 19.708 42.1718 19.678 42.3398 19.678H52.9598V18.994H42.3398C42.1718 18.994 42.0518 18.964 41.9798 18.904C41.9078 18.844 41.8718 18.73 41.8718 18.562V17.176C41.8718 16.996 41.9078 16.876 41.9798 16.816C42.0518 16.756 42.1718 16.726 42.3398 16.726H55.6058C55.7738 16.726 55.8938 16.756 55.9658 16.816C56.0378 16.876 56.0738 16.996 56.0738 17.176V21.478C56.0738 21.658 56.0378 21.778 55.9658 21.838C55.8938 21.898 55.7738 21.928 55.6058 21.928H44.9858V22.126C44.9858 22.402 45.0578 22.57 45.2018 22.63C45.3458 22.69 45.5678 22.72 45.8678 22.72C46.8758 22.72 47.8178 22.714 48.6938 22.702C49.5818 22.69 50.4218 22.672 51.2138 22.648C52.0178 22.624 52.7798 22.594 53.4998 22.558C54.2318 22.522 54.9518 22.474 55.6598 22.414C55.9598 22.402 56.1158 22.516 56.1278 22.756L56.2898 24.394ZM50.7998 13.828C50.7998 14.584 50.6378 15.13 50.3138 15.466C49.9898 15.802 49.5038 15.97 48.8558 15.97H42.9878C42.3398 15.97 41.8538 15.802 41.5298 15.466C41.2058 15.13 41.0438 14.584 41.0438 13.828V8.5C41.0438 8.32 41.0798 8.2 41.1518 8.14C41.2238 8.08 41.3438 8.05 41.5118 8.05H50.3318C50.4998 8.05 50.6198 8.08 50.6918 8.14C50.7638 8.2 50.7998 8.32 50.7998 8.5V13.828ZM53.0858 15.97C52.9178 15.97 52.7978 15.94 52.7258 15.88C52.6538 15.82 52.6178 15.7 52.6178 15.52V8.5C52.6178 8.32 52.6538 8.2 52.7258 8.14C52.7978 8.08 52.9178 8.05 53.0858 8.05H55.6058C55.7738 8.05 55.8938 8.08 55.9658 8.14C56.0378 8.2 56.0738 8.32 56.0738 8.5V10.408H57.7298C57.8978 10.408 58.0178 10.438 58.0898 10.498C58.1618 10.558 58.1978 10.678 58.1978 10.858V12.946C58.1978 13.126 58.1618 13.246 58.0898 13.306C58.0178 13.366 57.8978 13.396 57.7298 13.396H56.0738V15.52C56.0738 15.7 56.0378 15.82 55.9658 15.88C55.8938 15.94 55.7738 15.97 55.6058 15.97H53.0858ZM47.0378 13.198C47.2418 13.198 47.3798 13.162 47.4518 13.09C47.5238 13.006 47.5598 12.85 47.5598 12.622V10.732H44.2838V12.622C44.2838 12.85 44.3198 13.006 44.3918 13.09C44.4638 13.162 44.6018 13.198 44.8058 13.198H47.0378Z" fill="#FF40B4"/>
<path d="M19.905 24.394C19.929 24.538 19.899 24.628 19.815 24.664C19.731 24.7 19.605 24.73 19.437 24.754C18.609 24.838 17.787 24.904 16.971 24.952C16.167 25 15.333 25.036 14.469 25.06C13.605 25.096 12.699 25.12 11.751 25.132C10.815 25.144 9.80103 25.15 8.70903 25.15C7.59303 25.15 6.77703 24.916 6.26103 24.448C5.74503 23.992 5.48703 23.248 5.48703 22.216V20.11C5.48703 19.942 5.52303 19.828 5.59503 19.768C5.66703 19.708 5.78703 19.678 5.95503 19.678H16.575V18.994H5.95503C5.78703 18.994 5.66703 18.964 5.59503 18.904C5.52303 18.844 5.48703 18.73 5.48703 18.562V17.176C5.48703 16.996 5.52303 16.876 5.59503 16.816C5.66703 16.756 5.78703 16.726 5.95503 16.726H19.221C19.389 16.726 19.509 16.756 19.581 16.816C19.653 16.876 19.689 16.996 19.689 17.176V21.478C19.689 21.658 19.653 21.778 19.581 21.838C19.509 21.898 19.389 21.928 19.221 21.928H8.60103V22.126C8.60103 22.402 8.67303 22.57 8.81703 22.63C8.96103 22.69 9.18303 22.72 9.48303 22.72C10.491 22.72 11.433 22.714 12.309 22.702C13.197 22.69 14.037 22.672 14.829 22.648C15.633 22.624 16.395 22.594 17.115 22.558C17.847 22.522 18.567 22.474 19.275 22.414C19.575 22.402 19.731 22.516 19.743 22.756L19.905 24.394ZM10.707 8.05C10.875 8.05 10.995 8.08 11.067 8.14C11.139 8.2 11.175 8.32 11.175 8.5V9.778C11.175 10.126 11.217 10.468 11.301 10.804C11.385 11.128 11.541 11.434 11.769 11.722C11.997 11.998 12.303 12.25 12.687 12.478C13.071 12.694 13.563 12.862 14.163 12.982C14.211 12.994 14.265 13.006 14.325 13.018C14.397 13.03 14.463 13.06 14.523 13.108C14.583 13.144 14.631 13.204 14.667 13.288C14.715 13.36 14.739 13.468 14.739 13.612V15.61C14.739 15.826 14.679 15.958 14.559 16.006C14.451 16.042 14.355 16.054 14.271 16.042C13.851 16.006 13.419 15.946 12.975 15.862C12.543 15.766 12.117 15.64 11.697 15.484C11.277 15.316 10.875 15.106 10.491 14.854C10.107 14.602 9.76503 14.302 9.46503 13.954C9.15303 14.302 8.80503 14.602 8.42103 14.854C8.04903 15.106 7.65303 15.316 7.23303 15.484C6.81303 15.64 6.38103 15.766 5.93703 15.862C5.50503 15.946 5.07903 16.006 4.65903 16.042C4.57503 16.054 4.47303 16.042 4.35303 16.006C4.24503 15.958 4.19103 15.826 4.19103 15.61V13.612C4.19103 13.468 4.20903 13.36 4.24503 13.288C4.29303 13.204 4.34703 13.144 4.40703 13.108C4.46703 13.06 4.52703 13.03 4.58703 13.018C4.65903 13.006 4.71903 12.994 4.76703 12.982C5.36703 12.862 5.85903 12.694 6.24303 12.478C6.62703 12.25 6.93303 11.998 7.16103 11.722C7.38903 11.434 7.54503 11.128 7.62903 10.804C7.71303 10.468 7.75503 10.126 7.75503 9.778V8.5C7.75503 8.32 7.79103 8.2 7.86303 8.14C7.93503 8.08 8.05503 8.05 8.22303 8.05H10.707ZM16.701 15.97C16.533 15.97 16.413 15.94 16.341 15.88C16.269 15.82 16.233 15.7 16.233 15.52V8.5C16.233 8.32 16.269 8.2 16.341 8.14C16.413 8.08 16.533 8.05 16.701 8.05H19.221C19.389 8.05 19.509 8.08 19.581 8.14C19.653 8.2 19.689 8.32 19.689 8.5V10.408H21.345C21.513 10.408 21.633 10.438 21.705 10.498C21.777 10.558 21.813 10.678 21.813 10.858V12.946C21.813 13.126 21.777 13.246 21.705 13.306C21.633 13.366 21.513 13.396 21.345 13.396H19.689V15.52C19.689 15.7 19.653 15.82 19.581 15.88C19.509 15.94 19.389 15.97 19.221 15.97H16.701Z" fill="#FF40B4"/>
</svg>
